<svg width="374" height="265" viewBox="0 0 374 265" fill="none" xmlns="http://www.w3.org/2000/svg">
<path d="M3.81041 62.8564C-2.67401 53.9143 -0.681725 41.4087 8.26029 34.9243L51.1663 3.81048C60.1084 -2.67394 72.6139 -0.681657 79.0984 8.26036L121.953 67.3574L46.6653 121.953L3.81041 62.8564Z" fill="#FFD43A"/>
<path d="M46.6653 121.953L121.953 67.3574L176.549 142.645L101.261 197.241L46.6653 121.953Z" fill="#FFD43A"/>
<path d="M121.953 67.3574L181.05 24.5024C189.992 18.018 202.498 20.0103 208.982 28.9523L251.837 88.0493L176.549 142.645L121.953 67.3574Z" fill="#FFD43A"/>
<path d="M101.261 197.241L176.549 142.645L231.145 217.933L172.048 260.788C163.106 267.273 150.601 265.28 144.116 256.338L101.261 197.241Z" fill="#FFD43A"/>
<path d="M176.549 142.645L251.837 88.0493L306.433 163.337L231.145 217.933L176.549 142.645Z" fill="#FFD43A"/>
<path d="M251.837 88.0493L310.934 45.1944C319.876 38.71 332.382 40.7023 338.866 49.6443L369.98 92.5503C376.465 101.492 374.472 113.998 365.53 120.482L306.433 163.337L251.837 88.0493Z" fill="#FFD43A"/>
</svg>
