<svg width="301" height="176" viewBox="0 0 301 176" fill="none" xmlns="http://www.w3.org/2000/svg">
<path d="M4.65107 28.9861C15.8342 5.86762 43.6411 -3.80792 66.7596 7.37518L108.619 27.624L68.1217 111.343L26.262 91.0946C3.14351 79.9115 -6.53203 52.1046 4.65107 28.9861Z" fill="#00D230"/>
<path d="M108.619 27.624L192.339 68.1216L151.841 151.841L68.1217 111.343L108.619 27.624Z" fill="#00D230"/>
<path d="M192.339 68.1216L276.058 108.619L257.334 147.328C245.309 172.187 215.409 182.591 190.55 170.566L151.841 151.841L192.339 68.1216Z" fill="#00D230"/>
<path d="M212.588 26.2618C223.771 3.14336 251.578 -6.53219 274.696 4.65092C297.815 15.834 307.49 43.6409 296.307 66.7594L276.058 108.619L192.339 68.1216L212.588 26.2618Z" fill="#00D230"/>
</svg>
