<svg width="279" height="279" viewBox="0 0 279 279" fill="none" xmlns="http://www.w3.org/2000/svg">
<path d="M0 139.5C0 113.819 20.8188 93 46.5 93H93V186H46.5C20.8188 186 0 165.181 0 139.5Z" fill="#FF6900"/>
<path d="M93 93H186V186H93V93Z" fill="#FF6900"/>
<path d="M93 46.5C93 20.8188 113.819 0 139.5 0C165.181 0 186 20.8188 186 46.5V93H93V46.5Z" fill="#FF6900"/>
<path d="M186 93H232.5C258.181 93 279 113.819 279 139.5C279 165.181 258.181 186 232.5 186H186V93Z" fill="#FF6900"/>
<path d="M93 186H186V232.5C186 258.181 165.181 279 139.5 279C113.819 279 93 258.181 93 232.5V186Z" fill="#FF6900"/>
</svg>
